<svg width="7" height="7" viewBox="0 0 7 7" fill="none" xmlns="http://www.w3.org/2000/svg">
<g id="Frame" clip-path="url(#clip0_0_1299)">
<g id="Group">
<path id="Vector" d="M3.5 0C5.43305 0 7 1.56695 7 3.5C7 5.43305 5.43305 7 3.5 7C1.56695 7 0 5.43305 0 3.5C0 1.56695 1.56695 0 3.5 0ZM3.5 1.75C3.41427 1.75001 3.33153 1.78148 3.26747 1.83845C3.20341 1.89542 3.16248 1.97391 3.15245 2.05905L3.15 2.1V3.15H2.1C2.01079 3.1501 1.92499 3.18426 1.86012 3.2455C1.79525 3.30674 1.75622 3.39043 1.75099 3.47949C1.74576 3.56854 1.77474 3.65623 1.83199 3.72464C1.88925 3.79305 1.97047 3.83701 2.05905 3.84755L2.1 3.85H3.15V4.9C3.1501 4.98921 3.18426 5.07501 3.2455 5.13988C3.30674 5.20475 3.39043 5.24378 3.47949 5.24901C3.56854 5.25424 3.65623 5.22526 3.72464 5.16801C3.79305 5.11075 3.83701 5.02953 3.84755 4.94095L3.85 4.9V3.85H4.9C4.98921 3.8499 5.07501 3.81574 5.13988 3.7545C5.20475 3.69326 5.24378 3.60957 5.24901 3.52051C5.25424 3.43146 5.22526 3.34377 5.16801 3.27536C5.11075 3.20695 5.02953 3.16299 4.94095 3.15245L4.9 3.15H3.85V2.1C3.85 2.00717 3.81312 1.91815 3.74749 1.85251C3.68185 1.78687 3.59283 1.75 3.5 1.75Z" fill="#88888C"/>
</g>
</g>
<defs>
<clipPath id="clip0_0_1299">
<rect width="7" height="7" fill="white"/>
</clipPath>
</defs>
</svg>
