<svg width="7" height="7" viewBox="0 0 7 7" fill="none" xmlns="http://www.w3.org/2000/svg">
<g id="Frame" clip-path="url(#clip0_0_1359)">
<g id="Group">
<path id="Vector" d="M3.13261 0.388668C3.17005 0.324423 3.22368 0.271116 3.28815 0.234067C3.35262 0.197018 3.42568 0.177521 3.50004 0.177521C3.5744 0.177521 3.64746 0.197018 3.71193 0.234067C3.7764 0.271116 3.83003 0.324423 3.86747 0.388668L4.81836 2.02101L6.66504 2.4211C6.73768 2.43688 6.80491 2.47143 6.86003 2.5213C6.91516 2.57117 6.95625 2.63462 6.97921 2.70532C7.00216 2.77602 7.00619 2.8515 6.99088 2.92424C6.97557 2.99698 6.94146 3.06444 6.89196 3.11989L5.63317 4.52871L5.82369 6.40838C5.83121 6.4824 5.81918 6.55709 5.7888 6.625C5.75842 6.69291 5.71075 6.75166 5.65057 6.79539C5.59038 6.83912 5.51977 6.8663 5.4458 6.8742C5.37183 6.88211 5.29707 6.87047 5.229 6.84045L3.50004 6.07838L1.77108 6.84045C1.70301 6.87047 1.62826 6.88211 1.55429 6.8742C1.48031 6.8663 1.4097 6.83912 1.34952 6.79539C1.28933 6.75166 1.24167 6.69291 1.21129 6.625C1.18091 6.55709 1.16888 6.4824 1.17639 6.40838L1.36691 4.52871L0.108127 3.12023C0.0585333 3.06479 0.0243515 2.9973 0.00899371 2.92451C-0.00636403 2.85173 -0.00236033 2.77619 0.0206051 2.70543C0.0435705 2.63467 0.0846943 2.57118 0.139871 2.52129C0.195047 2.47139 0.262346 2.43685 0.335048 2.4211L2.18172 2.02101L3.13261 0.388668Z" fill="#9CA1FF"/>
</g>
</g>
<defs>
<clipPath id="clip0_0_1359">
<rect width="7" height="7" fill="white"/>
</clipPath>
</defs>
</svg>
