<svg width="16" height="16" viewBox="0 0 16 16" fill="none" xmlns="http://www.w3.org/2000/svg">
<g id="Heart">
<path id="Shape" d="M7.54118 3.94746C6.26949 2.67576 4.21213 2.66958 2.94594 3.93578C1.67975 5.20197 1.68593 7.25933 2.95762 8.53102L7.66511 13.2385C7.86038 13.4338 8.17696 13.4338 8.37222 13.2385L13.0553 8.55824C14.3185 7.28793 14.3145 5.23634 13.0426 3.96442C11.7686 2.69045 9.7103 2.68427 8.44184 3.95273L7.99458 4.40085L7.54118 3.94746ZM12.3462 7.85311L8.01867 12.1779L3.66473 7.82391C2.78261 6.9418 2.77833 5.5176 3.65305 4.64288C4.52776 3.76817 5.95196 3.77245 6.83408 4.65456L7.64343 5.46392C7.84203 5.66252 8.1652 5.65862 8.35895 5.4553L9.14895 4.65984C10.0259 3.78286 11.4511 3.78714 12.3355 4.67153C13.2178 5.55387 13.2206 6.97382 12.3462 7.85311Z" fill="#88888C"/>
</g>
</svg>
